<svg width="69" height="15" viewBox="0 0 69 15" fill="none" xmlns="http://www.w3.org/2000/svg">
<path d="M10.3954 0.506751V9.34268C10.3954 10.8107 9.92968 11.9716 8.99818 12.8254C8.07288 13.6792 6.80612 14.1061 5.19769 14.1061C3.61418 14.1061 2.35667 13.6915 1.42518 12.8623C0.493693 12.0331 0.0186277 10.8936 0 9.44403V0.506751H2.79447V9.36106C2.79447 10.2395 3.00561 10.8813 3.42788 11.2867C3.85637 11.686 4.44631 11.8856 5.19769 11.8856C6.76882 11.8856 7.56679 11.0687 7.59165 9.43477V0.506751H10.3954ZM15.56 3.95266L15.6438 5.10436C16.3641 4.21371 17.3298 3.76839 18.5408 3.76839C19.6089 3.76839 20.4037 4.07858 20.9254 4.69896C21.447 5.31935 21.7141 6.24685 21.7264 7.48147V13.9218H19.0344V7.54599C19.0344 6.98088 18.9102 6.57238 18.6619 6.32056C18.4134 6.0626 18.0005 5.93359 17.423 5.93359C16.6654 5.93359 16.0971 6.253 15.7184 6.89182V13.9218H13.0264V3.95266H15.56ZM34.7901 0.506751V9.34268C34.7901 10.8107 34.3243 11.9716 33.3928 12.8254C32.4675 13.6792 31.2007 14.1061 29.5923 14.1061C28.0088 14.1061 26.7513 13.6915 25.8198 12.8623C24.8883 12.0331 24.4133 10.8936 24.3946 9.44403V0.506751H27.1891V9.36106C27.1891 10.2395 27.4002 10.8813 27.8225 11.2867C28.251 11.686 28.8409 11.8856 29.5923 11.8856C31.1635 11.8856 31.9614 11.0687 31.9862 9.43477V0.506751H34.7901ZM39.9546 3.95266L40.0384 5.10436C40.7588 4.21371 41.7245 3.76839 42.9353 3.76839C44.0035 3.76839 44.7984 4.07858 45.32 4.69896C45.8416 5.31935 46.1086 6.24685 46.1211 7.48147V13.9218H43.4291V7.54599C43.4291 6.98088 43.3049 6.57238 43.0565 6.32056C42.8081 6.0626 42.3951 5.93359 41.8176 5.93359C41.06 5.93359 40.4918 6.253 40.1129 6.89182V13.9218H37.4209V3.95266H39.9546ZM51.5837 13.9218H48.8824V3.95266H51.5837V13.9218ZM48.724 1.37284C48.724 0.973574 48.8576 0.644957 49.1246 0.386973C49.3978 0.128991 49.7673 0 50.2331 0C50.6926 0 51.059 0.128991 51.3322 0.386973C51.6054 0.644957 51.7421 0.973574 51.7421 1.37284C51.7421 1.77823 51.6023 2.10993 51.3229 2.36791C51.0496 2.62589 50.6864 2.75488 50.2331 2.75488C49.7797 2.75488 49.4133 2.62589 49.1339 2.36791C48.8606 2.10993 48.724 1.77823 48.724 1.37284ZM62.7189 8.43974H57.3537V13.9218H54.5592V0.506751H63.3896V2.74567H57.3537V6.21002H62.7189V8.43974ZM68.2468 13.9218H65.5459V3.95266H68.2468V13.9218ZM65.3872 1.37284C65.3872 0.973574 65.5207 0.644957 65.7878 0.386973C66.061 0.128991 66.4302 0 66.8961 0C67.3558 0 67.7219 0.128991 67.9952 0.386973C68.2684 0.644957 68.405 0.973574 68.405 1.37284C68.405 1.77823 68.2653 2.10993 67.9859 2.36791C67.7127 2.62589 67.3496 2.75488 66.8961 2.75488C66.4432 2.75488 66.0764 2.62589 65.797 2.36791C65.5238 2.10993 65.3872 1.77823 65.3872 1.37284Z" fill="white"/>
</svg>
